{"title":"The.Independents.2014.09.30.WS.SDTV.x264-XAiO","uid":11297407,"size":358916772,"categoryP":"video","categoryS":"tv_shows","magnet":"?xt=urn:btih:524afd6bfe1a4efc6f9c02bb2f609a3bc23b35e3&amp;dn=The.Independents.2014.09.30.WS.SDTV.x264-XAiO&amp;tr=udp%3A%2F%2Ftracker.openbittorrent.com%3A80&amp;tr=udp%3A%2F%2Fopen.demonii.com%3A1337&amp;tr=udp%3A%2F%2Ftracker.coppersurfer.tk%3A6969&amp;tr=udp%3A%2F%2Fexodus.desync.com%3A6969","seeders":0,"leechers":0,"uploader":"Reive","files":-1,"time":1414394764,"description":"So.. this one is close to a month late. Sorry guys. Better late than never?\n\n\nTONIGHT ON THE INDEPENDENTS (written by Matt Welch, taken from Reason)\n---------------------------\nBecause your cable news right now is filled with PANIC PANIC PANIC about Ebola coming to the U.S. and A., tonight's live episode of The Independents (Fox Business Network, 9 p.m. ET, 6 p.m. PT, with re-airs three hours later) is here to tell you to KNOCK IT OFF ALREADY. Non-hysterical Party Panelists Mollie Hemingway (senior editor of The Federalist) and Angela McGlowan (Fox News contributor) will purr you through the latest disease-news, then turn their attentions to the boiling-over conflict between President Barack Obama and his intelligence apparatus.\n\nThe co-hosts will discuss the ongoing clusterfudges surrounding the Secret Service's botched protection of the president, including this breaking bit about how, well, POTUS's praetorians let him take an elevator ride with a weird-acting armed convict a couple weeks back. The great Yahoo! News political reporter Chris Moody will come on to handicap close Senate races where Libertarians and other third-party types are threatening to be (alleged!) spoilers. Beloved Reason Senior Editor Peter Suderman arrives to explain how up to 300,000 Americans may soon lose their Obamacare as they know it. The Party Panel will be recalled to talk about California's spanking new plastic-bag ban, and hopefully also the critical debate as to whether hot dogs are or are not sandwiches. And Kmele Foster will wrap a bow on things by trying to unpack just why the hell the U.S. is keeping 10,000 troops in Afghanistan forever.\n\nINFO\n----\nRipped with the Diamond VC500. Using the software that came packaged with the dongle. (It's called EZ Ripper.) In that software there's a &quot;DVD Standard&quot; which rips the video to .mpg at 720x480 with some terrible black bars. I load that file into AVIDemux. Cut the file into multiple parts to remove the commercials. Rejoin, crop, and resize those files using the same tool. For conversion I used MPEG4 AVC (x264), 2 pass on video and AAC (faac) on audio.\n\nI am not part of the scene. I just admire their naming standards.\n\nGeneral \nComplete name : The.Independents.2014.09.30.WS.SDTV.x264-XAiO.mkv \nFormat : MPEG-4 \nFormat profile : Base Media \nCodec ID : isom \nFile size : 342 MiB \nDuration : 32mn 44s \nOverall bit rate : 1 462 Kbps \nWriting application : Lavf54.63.104 \n\nVideo \nID : 1 \nFormat : AVC \nFormat/Info : Advanced Video Codec \nFormat profile : &lt;a class=&quot;__cf_email__&quot; href=&quot;/cdn-cgi/l/email-protection&quot; data-cfemail=&quot;3d75545a557d710e130d&quot;&gt;[email&amp;#160;protected]&lt;/a&gt;&lt;script cf-hash='f9e31' type=&quot;text/javascript&quot;&gt;\n/* &lt;![CDATA[ */!function(){try{var t=&quot;currentScript&quot;in document?document.currentScript:function(){for(var t=document.getElementsByTagName(&quot;script&quot;),e=t.length;e--;)if(t[e].getAttribute(&quot;cf-hash&quot;))return t[e]}();if(t&amp;&amp;t.previousSibling){var e,r,n,i,c=t.previousSibling,a=c.getAttribute(&quot;data-cfemail&quot;);if(a){for(e=&quot;&quot;,r=parseInt(a.substr(0,2),16),n=2;a.length-n;n+=2)i=parseInt(a.substr(n,2),16)^r,e+=String.fromCharCode(i);e=document.createTextNode(e),c.parentNode.replaceChild(e,c)}}}catch(u){}}();/* ]]&gt; */&lt;/script&gt; \nFormat settings, CABAC : Yes \nFormat settings, ReFrames : 4 frames \nCodec ID : avc1 \nCodec ID/Info : Advanced Video Coding \nDuration : 32mn 44s \nBit rate : 1 323 Kbps \nWidth : 720 pixels \nHeight : 404 pixels \nDisplay aspect ratio : 16:9 \nFrame rate mode : Variable \nFrame rate : 29.970 fps \nMinimum frame rate : 14.985 fps \nMaximum frame rate : 29.970 fps \nColor space : YUV \nChroma subsampling : 4:2:0 \nBit depth : 8 bits \nScan type : Progressive \nBits/(Pixel*Frame) : 0.152 \nStream size : 310 MiB (91%) \nWriting library : x264 core 123 r2189 35cf912 \nEncoding settings : cabac=1 / ref=3 / deblock=1:0:0 / analyse=0x3:0x133 / me=hex / subme=7 / psy=1 / psy_rd=1.00:0.00 / mixed_ref=1 / me_range=16 / chroma_me=1 / trellis=1 / 8x8dct=1 / cqm=0 / deadzone=21,11 / fast_pskip=1 / chroma_qp_offset=-2 / threads=6 / sliced_threads=0 / nr=0 / decimate=1 / interlaced=0 / bluray_compat=0 / constrained_intra=0 / bframes=3 / b_pyramid=2 / b_adapt=1 / b_bias=0 / direct=1 / weightb=1 / open_gop=0 / weightp=2 / keyint=250 / keyint_min=25 / scenecut=40 / intra_refresh=0 / rc_lookahead=40 / rc=2pass / mbtree=1 / bitrate=1323 / ratetol=1.0 / qcomp=0.60 / qpmin=10 / qpmax=51 / qpstep=4 / cplxblur=20.0 / qblur=0.5 / ip_ratio=1.40 / aq=1:1.00 \n\nAudio \nID : 2 \nFormat : AAC \nFormat/Info : Advanced Audio Codec \nFormat profile : LC \nCodec ID : 40 \nDuration : 32mn 44s \nBit rate mode : Constant \nBit rate : 128 Kbps \nChannel(s) : 2 channels \nChannel positions : Front: L R \nSampling rate : 48.0 KHz \nCompression mode : Lossy \nStream size : 30.0 MiB (9%) \nLanguage : unk","torrent":{"xt":"urn:btih:524afd6bfe1a4efc6f9c02bb2f609a3bc23b35e3","amp;dn":"The.Independents.2014.09.30.WS.SDTV.x264-XAiO","amp;tr":["udp%3A%2F%2Ftracker.openbittorrent.com%3A80","udp%3A%2F%2Fopen.demonii.com%3A1337","udp%3A%2F%2Ftracker.coppersurfer.tk%3A6969","udp%3A%2F%2Fexodus.desync.com%3A6969"],"infoHash":"524afd6bfe1a4efc6f9c02bb2f609a3bc23b35e3","infoHashBuffer":{"type":"Buffer","data":[82,74,253,107,254,26,78,252,111,156,2,187,47,96,154,59,194,59,53,227]},"announce":[],"urlList":[]}}